<?xml version="1.0" encoding="UTF-8"?>
<!DOCTYPE svg PUBLIC "-//W3C//DTD SVG 1.1//EN" "http://www.w3.org/Graphics/SVG/1.1/DTD/svg11.dtd">
<svg xmlns="http://www.w3.org/2000/svg" version="1.1" width="512px" height="512px" style="shape-rendering:geometricPrecision; text-rendering:geometricPrecision; image-rendering:optimizeQuality; fill-rule:evenodd; clip-rule:evenodd" xmlns:xlink="http://www.w3.org/1999/xlink">
<g><path style="opacity:0.985" fill="#42a5f5" d="M -0.5,122.5 C -0.5,97.8333 -0.5,73.1667 -0.5,48.5C 0.977392,46.193 2.97739,44.3597 5.5,43C 30.1667,42.3333 54.8333,42.3333 79.5,43C 82.1353,44.9605 83.9686,47.4605 85,50.5C 85.6667,73.8333 85.6667,97.1667 85,120.5C 83.8333,124.333 81.3333,126.833 77.5,128C 54.1667,128.667 30.8333,128.667 7.5,128C 4.42408,126.757 1.75741,124.923 -0.5,122.5 Z"/></g>
<g><path style="opacity:0.991" fill="#607c8b" d="M 511.5,78.5 C 511.5,83.1667 511.5,87.8333 511.5,92.5C 508.593,99.2368 503.593,103.737 496.5,106C 385.5,106.667 274.5,106.667 163.5,106C 151.794,101.098 146.961,92.2649 149,79.5C 151.5,71.6667 156.667,66.5 164.5,64C 274.833,63.3333 385.167,63.3333 495.5,64C 503.607,65.9469 508.94,70.7802 511.5,78.5 Z"/></g>
<g><path style="opacity:0.985" fill="#42a5f5" d="M -0.5,292.5 C -0.5,267.833 -0.5,243.167 -0.5,218.5C 1.75741,216.077 4.42408,214.243 7.5,213C 30.8333,212.333 54.1667,212.333 77.5,213C 81.3333,214.167 83.8333,216.667 85,220.5C 85.6667,243.833 85.6667,267.167 85,290.5C 83.9686,293.539 82.1353,296.039 79.5,298C 54.8333,298.667 30.1667,298.667 5.5,298C 2.97739,296.64 0.977392,294.807 -0.5,292.5 Z"/></g>
<g><path style="opacity:0.991" fill="#607c8b" d="M 511.5,248.5 C 511.5,253.167 511.5,257.833 511.5,262.5C 508.94,270.22 503.607,275.053 495.5,277C 385.167,277.667 274.833,277.667 164.5,277C 150.731,271.627 145.897,261.794 150,247.5C 152.482,241.172 156.982,237.006 163.5,235C 274.833,234.333 386.167,234.333 497.5,235C 504.019,237.687 508.686,242.187 511.5,248.5 Z"/></g>
<g><path style="opacity:0.985" fill="#42a4f5" d="M -0.5,463.5 C -0.5,438.833 -0.5,414.167 -0.5,389.5C 1.04602,386.8 3.37935,384.967 6.5,384C 30.5,383.333 54.5,383.333 78.5,384C 81.7284,385.563 83.8951,388.063 85,391.5C 85.6667,414.833 85.6667,438.167 85,461.5C 83.8951,464.937 81.7284,467.437 78.5,469C 54.5,469.667 30.5,469.667 6.5,469C 3.37935,468.033 1.04602,466.2 -0.5,463.5 Z"/></g>
<g><path style="opacity:0.97" fill="#607d8a" d="M 511.5,419.5 C 511.5,424.167 511.5,428.833 511.5,433.5C 508.165,440.997 502.498,445.831 494.5,448C 385.167,448.667 275.833,448.667 166.5,448C 152.578,444.063 146.745,434.896 149,420.5C 151.687,411.814 157.521,406.647 166.5,405C 275.833,404.333 385.167,404.333 494.5,405C 502.498,407.169 508.165,412.003 511.5,419.5 Z"/></g>
</svg>
