<?xml version="1.0" encoding="UTF-8"?>
<!DOCTYPE svg PUBLIC "-//W3C//DTD SVG 1.1//EN" "http://www.w3.org/Graphics/SVG/1.1/DTD/svg11.dtd">
<svg xmlns="http://www.w3.org/2000/svg" version="1.1" width="512px" height="512px" style="shape-rendering:geometricPrecision; text-rendering:geometricPrecision; image-rendering:optimizeQuality; fill-rule:evenodd; clip-rule:evenodd" xmlns:xlink="http://www.w3.org/1999/xlink">
<g><path style="opacity:0.989" fill="#4dacf2" d="M 106.5,26.5 C 106.168,61.0041 106.502,95.3374 107.5,129.5C 107.5,162.5 107.5,195.5 107.5,228.5C 106.167,246.5 106.167,264.5 107.5,282.5C 107.5,315.5 107.5,348.5 107.5,381.5C 106.507,415.76 106.174,450.094 106.5,484.5C 94.4987,483.943 83.1654,480.943 72.5,475.5C 72.5,328.833 72.5,182.167 72.5,35.5C 83.1654,30.0573 94.4987,27.0573 106.5,26.5 Z"/></g>
<g><path style="opacity:0.989" fill="#43a5ef" d="M 106.5,26.5 C 129.167,26.5 151.833,26.5 174.5,26.5C 172.052,27.4731 169.385,27.8064 166.5,27.5C 166.5,54.1667 166.5,80.8333 166.5,107.5C 152.774,107.073 139.107,107.573 125.5,109C 116.392,113.264 110.392,120.097 107.5,129.5C 106.502,95.3374 106.168,61.0041 106.5,26.5 Z"/></g>
<g><path style="opacity:0.989" fill="#379eeb" d="M 174.5,26.5 C 191.833,26.5 209.167,26.5 226.5,26.5C 226.5,53.5 226.5,80.5 226.5,107.5C 206.5,107.5 186.5,107.5 166.5,107.5C 166.5,80.8333 166.5,54.1667 166.5,27.5C 169.385,27.8064 172.052,27.4731 174.5,26.5 Z"/></g>
<g><path style="opacity:0.998" fill="#2e99e8" d="M 226.5,26.5 C 236.167,26.5 245.833,26.5 255.5,26.5C 255.5,179.167 255.5,331.833 255.5,484.5C 245.833,484.5 236.167,484.5 226.5,484.5C 226.5,457.5 226.5,430.5 226.5,403.5C 228.752,403.084 230.252,401.751 231,399.5C 231.667,369.167 231.667,338.833 231,308.5C 230.651,302.289 228.818,296.622 225.5,291.5C 226.498,267.339 226.831,243.006 226.5,218.5C 229.096,213.538 230.596,208.205 231,202.5C 231.667,172.167 231.667,141.833 231,111.5C 230.252,109.249 228.752,107.916 226.5,107.5C 226.5,80.5 226.5,53.5 226.5,26.5 Z"/></g>
<g><path style="opacity:0.999" fill="#2a96e7" d="M 255.5,26.5 C 260.167,26.5 264.833,26.5 269.5,26.5C 269.5,179.167 269.5,331.833 269.5,484.5C 264.833,484.5 260.167,484.5 255.5,484.5C 255.5,331.833 255.5,179.167 255.5,26.5 Z"/></g>
<g><path style="opacity:0.997" fill="#2493e6" d="M 269.5,26.5 C 286.167,26.5 302.833,26.5 319.5,26.5C 319.5,53.1667 319.5,79.8333 319.5,106.5C 323.042,106.187 326.375,106.521 329.5,107.5C 313.83,107.333 298.163,107.5 282.5,108C 281.299,108.903 280.465,110.069 280,111.5C 279.052,144.197 279.385,176.863 281,209.5C 283.833,220.333 290.667,227.167 301.5,230C 307.455,231.072 313.455,231.572 319.5,231.5C 319.5,247.5 319.5,263.5 319.5,279.5C 307.06,278.044 296.227,281.378 287,289.5C 284.122,293.049 282.122,297.049 281,301.5C 279.385,334.137 279.052,366.803 280,399.5C 280.465,400.931 281.299,402.097 282.5,403C 298.163,403.5 313.83,403.667 329.5,403.5C 326.375,404.479 323.042,404.813 319.5,404.5C 319.5,431.167 319.5,457.833 319.5,484.5C 302.833,484.5 286.167,484.5 269.5,484.5C 269.5,331.833 269.5,179.167 269.5,26.5 Z"/></g>
<g><path style="opacity:0.992" fill="#188be2" d="M 319.5,26.5 C 341.5,26.5 363.5,26.5 385.5,26.5C 382.713,27.4767 379.713,27.81 376.5,27.5C 376.176,54.2408 376.509,80.9075 377.5,107.5C 361.5,107.5 345.5,107.5 329.5,107.5C 326.375,106.521 323.042,106.187 319.5,106.5C 319.5,79.8333 319.5,53.1667 319.5,26.5 Z"/></g>
<g><path style="opacity:0.996" fill="#0f86df" d="M 385.5,26.5 C 394.173,26.3336 402.84,26.5002 411.5,27C 413.708,27.1909 415.708,27.6909 417.5,28.5C 416.5,179.999 416.167,331.666 416.5,483.5C 406.194,484.371 395.86,484.704 385.5,484.5C 382.713,483.523 379.713,483.19 376.5,483.5C 375.856,456.607 376.523,429.94 378.5,403.5C 391.227,401.275 399.393,393.941 403,381.5C 403.667,348.5 403.667,315.5 403,282.5C 402.097,281.299 400.931,280.465 399.5,280C 391.841,279.5 384.174,279.334 376.5,279.5C 376.5,263.5 376.5,247.5 376.5,231.5C 384.174,231.666 391.841,231.5 399.5,231C 400.931,230.535 402.097,229.701 403,228.5C 403.167,212 403.333,195.5 403.5,179C 403.64,161.117 403.14,143.283 402,125.5C 397.286,114.733 389.119,108.733 377.5,107.5C 376.509,80.9075 376.176,54.2408 376.5,27.5C 379.713,27.81 382.713,27.4767 385.5,26.5 Z"/></g>
<g><path style="opacity:0.999" fill="#0983dd" d="M 417.5,28.5 C 429.944,30.5593 440.944,35.5593 450.5,43.5C 449.833,113.833 449.5,184.333 449.5,255C 449.5,325.837 450.167,396.337 451.5,466.5C 441.359,475.069 429.693,480.736 416.5,483.5C 416.167,331.666 416.5,179.999 417.5,28.5 Z"/></g>
<g><path style="opacity:0.998" fill="#54b0f4" d="M 72.5,35.5 C 72.5,182.167 72.5,328.833 72.5,475.5C 60.6935,469.697 51.0268,461.363 43.5,450.5C 43.5,320.5 43.5,190.5 43.5,60.5C 51.0268,49.6367 60.6935,41.3033 72.5,35.5 Z"/></g>
<g><path style="opacity:0.992" fill="#037fdc" d="M 450.5,43.5 C 469.062,57.6067 480.229,76.2733 484,99.5C 484.667,203.5 484.667,307.5 484,411.5C 481.815,427.196 475.815,441.196 466,453.5C 461.574,458.434 456.74,462.767 451.5,466.5C 450.167,396.337 449.5,325.837 449.5,255C 449.5,184.333 449.833,113.833 450.5,43.5 Z"/></g>
<g><path style="opacity:0.984" fill="#59b2f5" d="M 43.5,60.5 C 43.5,190.5 43.5,320.5 43.5,450.5C 34.4305,439.157 28.9305,426.157 27,411.5C 26.3333,307.5 26.3333,203.5 27,99.5C 28.9305,84.8426 34.4305,71.8426 43.5,60.5 Z"/></g>
<g><path style="opacity:1" fill="#43a5ef" d="M 107.5,228.5 C 108.683,229.504 110.016,230.338 111.5,231C 129.83,231.5 148.164,231.667 166.5,231.5C 166.5,247.5 166.5,263.5 166.5,279.5C 148.164,279.333 129.83,279.5 111.5,280C 110.016,280.662 108.683,281.496 107.5,282.5C 106.167,264.5 106.167,246.5 107.5,228.5 Z"/></g>
<g><path style="opacity:1" fill="#399fec" d="M 226.5,218.5 C 226.831,243.006 226.498,267.339 225.5,291.5C 221.401,286.273 216.068,282.773 209.5,281C 195.207,279.631 180.874,279.131 166.5,279.5C 166.5,263.5 166.5,247.5 166.5,231.5C 180.874,231.869 195.207,231.369 209.5,230C 216.42,227.895 222.087,224.062 226.5,218.5 Z"/></g>
<g><path style="opacity:1" fill="#188be2" d="M 319.5,231.5 C 338.5,231.5 357.5,231.5 376.5,231.5C 376.5,247.5 376.5,263.5 376.5,279.5C 357.5,279.5 338.5,279.5 319.5,279.5C 319.5,263.5 319.5,247.5 319.5,231.5 Z"/></g>
<g><path style="opacity:0.989" fill="#43a5ef" d="M 107.5,381.5 C 110.392,390.903 116.392,397.736 125.5,402C 139.107,403.427 152.774,403.927 166.5,403.5C 166.5,430.167 166.5,456.833 166.5,483.5C 169.385,483.194 172.052,483.527 174.5,484.5C 151.833,484.5 129.167,484.5 106.5,484.5C 106.174,450.094 106.507,415.76 107.5,381.5 Z"/></g>
<g><path style="opacity:0.989" fill="#379eeb" d="M 166.5,403.5 C 186.5,403.5 206.5,403.5 226.5,403.5C 226.5,430.5 226.5,457.5 226.5,484.5C 209.167,484.5 191.833,484.5 174.5,484.5C 172.052,483.527 169.385,483.194 166.5,483.5C 166.5,456.833 166.5,430.167 166.5,403.5 Z"/></g>
<g><path style="opacity:0.992" fill="#188be2" d="M 329.5,403.5 C 345.833,403.5 362.167,403.5 378.5,403.5C 376.523,429.94 375.856,456.607 376.5,483.5C 379.713,483.19 382.713,483.523 385.5,484.5C 363.5,484.5 341.5,484.5 319.5,484.5C 319.5,457.833 319.5,431.167 319.5,404.5C 323.042,404.813 326.375,404.479 329.5,403.5 Z"/></g>
</svg>
