<?xml version="1.0" encoding="UTF-8"?>
<!DOCTYPE svg PUBLIC "-//W3C//DTD SVG 1.1//EN" "http://www.w3.org/Graphics/SVG/1.1/DTD/svg11.dtd">
<svg xmlns="http://www.w3.org/2000/svg" version="1.1" width="512px" height="512px" style="shape-rendering:geometricPrecision; text-rendering:geometricPrecision; image-rendering:optimizeQuality; fill-rule:evenodd; clip-rule:evenodd" xmlns:xlink="http://www.w3.org/1999/xlink">
<g><path style="opacity:0.938" fill="#000000" d="M 99.5,26.5 C 203.501,26.3333 307.501,26.5 411.5,27C 442.316,32.487 464.483,49.3203 478,77.5C 480.817,84.6162 482.817,91.9495 484,99.5C 484.667,203.5 484.667,307.5 484,411.5C 478.513,442.316 461.68,464.483 433.5,478C 426.384,480.817 419.05,482.817 411.5,484C 307.5,484.667 203.5,484.667 99.5,484C 68.6841,478.513 46.5175,461.68 33,433.5C 30.1832,426.384 28.1832,419.05 27,411.5C 26.3333,307.5 26.3333,203.5 27,99.5C 35.3468,59.3202 59.5134,34.9869 99.5,26.5 Z M 106.5,36.5 C 205.834,36.3333 305.167,36.5 404.5,37C 445,42.8333 468.167,66 474,106.5C 474.667,205.833 474.667,305.167 474,404.5C 468.167,445 445,468.167 404.5,474C 305.167,474.667 205.833,474.667 106.5,474C 66,468.167 42.8333,445 37,404.5C 36.3333,305.167 36.3333,205.833 37,106.5C 43.0118,65.9886 66.1784,42.6553 106.5,36.5 Z M 133.5,116.5 C 162.833,116.5 192.167,116.5 221.5,116.5C 221.667,146.502 221.5,176.502 221,206.5C 218.833,214 214,218.833 206.5,221C 176.502,221.5 146.502,221.667 116.5,221.5C 116.333,192.165 116.5,162.831 117,133.5C 118.68,123.988 124.18,118.322 133.5,116.5 Z M 289.5,116.5 C 318.835,116.333 348.169,116.5 377.5,117C 387,118.5 392.5,124 394,133.5C 394.5,162.831 394.667,192.165 394.5,221.5C 364.498,221.667 334.498,221.5 304.5,221C 297,218.833 292.167,214 290,206.5C 289.5,176.502 289.333,146.502 289.5,116.5 Z M 116.5,289.5 C 146.502,289.333 176.502,289.5 206.5,290C 214,292.167 218.833,297 221,304.5C 221.5,334.498 221.667,364.498 221.5,394.5C 192.165,394.667 162.831,394.5 133.5,394C 124,392.5 118.5,387 117,377.5C 116.5,348.169 116.333,318.835 116.5,289.5 Z M 304.5,289.5 C 334.5,289.5 364.5,289.5 394.5,289.5C 394.667,318.835 394.5,348.169 394,377.5C 392.5,387 387,392.5 377.5,394C 348.169,394.5 318.835,394.667 289.5,394.5C 289.333,364.498 289.5,334.498 290,304.5C 292.351,296.984 297.184,291.984 304.5,289.5 Z"/></g>
<g><path style="opacity:0.949" fill="#000000" d="M 128.5,106.5 C 162.168,106.333 195.835,106.5 229.5,107C 230,107.5 230.5,108 231,108.5C 231.667,142.5 231.667,176.5 231,210.5C 228.167,221.333 221.333,228.167 210.5,231C 176.5,231.667 142.5,231.667 108.5,231C 108,230.5 107.5,230 107,229.5C 106.333,195.833 106.333,162.167 107,128.5C 110.35,117.318 117.517,109.984 128.5,106.5 Z M 133.5,116.5 C 124.18,118.322 118.68,123.988 117,133.5C 116.5,162.831 116.333,192.165 116.5,221.5C 146.502,221.667 176.502,221.5 206.5,221C 214,218.833 218.833,214 221,206.5C 221.5,176.502 221.667,146.502 221.5,116.5C 192.167,116.5 162.833,116.5 133.5,116.5 Z"/></g>
<g><path style="opacity:0.948" fill="#000000" d="M 281.5,106.5 C 315.168,106.333 348.835,106.5 382.5,107C 393.667,110.167 400.833,117.333 404,128.5C 404.667,162.167 404.667,195.833 404,229.5C 403.5,230 403,230.5 402.5,231C 368.5,231.667 334.5,231.667 300.5,231C 289.667,228.167 282.833,221.333 280,210.5C 279.333,176.5 279.333,142.5 280,108.5C 280.717,107.956 281.217,107.289 281.5,106.5 Z M 289.5,116.5 C 289.333,146.502 289.5,176.502 290,206.5C 292.167,214 297,218.833 304.5,221C 334.498,221.5 364.498,221.667 394.5,221.5C 394.667,192.165 394.5,162.831 394,133.5C 392.5,124 387,118.5 377.5,117C 348.169,116.5 318.835,116.333 289.5,116.5 Z"/></g>
<g><path style="opacity:0.948" fill="#000000" d="M 108.5,279.5 C 142.502,279.333 176.502,279.5 210.5,280C 221.333,282.833 228.167,289.667 231,300.5C 231.667,334.5 231.667,368.5 231,402.5C 230.5,403 230,403.5 229.5,404C 195.833,404.667 162.167,404.667 128.5,404C 117.333,400.833 110.167,393.667 107,382.5C 106.333,348.833 106.333,315.167 107,281.5C 107.717,280.956 108.217,280.289 108.5,279.5 Z M 116.5,289.5 C 116.333,318.835 116.5,348.169 117,377.5C 118.5,387 124,392.5 133.5,394C 162.831,394.5 192.165,394.667 221.5,394.5C 221.667,364.498 221.5,334.498 221,304.5C 218.833,297 214,292.167 206.5,290C 176.502,289.5 146.502,289.333 116.5,289.5 Z"/></g>
<g><path style="opacity:0.948" fill="#000000" d="M 300.5,279.5 C 334.502,279.333 368.502,279.5 402.5,280C 403,280.5 403.5,281 404,281.5C 404.667,315.167 404.667,348.833 404,382.5C 400.833,393.667 393.667,400.833 382.5,404C 348.833,404.667 315.167,404.667 281.5,404C 281,403.5 280.5,403 280,402.5C 279.333,368.5 279.333,334.5 280,300.5C 281.556,295.72 283.889,291.387 287,287.5C 291.183,284.164 295.683,281.497 300.5,279.5 Z M 304.5,289.5 C 297.184,291.984 292.351,296.984 290,304.5C 289.5,334.498 289.333,364.498 289.5,394.5C 318.835,394.667 348.169,394.5 377.5,394C 387,392.5 392.5,387 394,377.5C 394.5,348.169 394.667,318.835 394.5,289.5C 364.5,289.5 334.5,289.5 304.5,289.5 Z"/></g>
</svg>
